<svg viewBox="0 0 800 800" xmlns="http://www.w3.org/2000/svg">
<circle cx="400.0" cy="400.0" r="380" fill="#0d1117"/>
<circle cx="297.0" cy="165.0" r="2.61" fill="#ffd700"/>
<circle cx="319.0" cy="165.0" r="4.24" fill="#ffd700"/>
<circle cx="495.0" cy="165.0" r="6.27" fill="#ffd700"/>
<circle cx="297.0" cy="187.0" r="7.84" fill="#ffd700"/>
<circle cx="319.0" cy="187.0" r="8.53" fill="#ffd700"/>
<circle cx="473.0" cy="187.0" r="4.43" fill="#ffd700"/>
<circle cx="495.0" cy="187.0" r="9.97" fill="#ffd700"/>
<circle cx="517.0" cy="187.0" r="2.03" fill="#ffd700"/>
<circle cx="275.0" cy="209.0" r="3.20" fill="#ffd700"/>
<circle cx="297.0" cy="209.0" r="4.98" fill="#ffd700"/>
<circle cx="319.0" cy="209.0" r="10.08" fill="#ffd700"/>
<circle cx="341.0" cy="209.0" r="2.80" fill="#ffd700"/>
<circle cx="473.0" cy="209.0" r="8.70" fill="#ffd700"/>
<circle cx="495.0" cy="209.0" r="5.67" fill="#ffd700"/>
<circle cx="517.0" cy="209.0" r="6.61" fill="#ffd700"/>
<circle cx="275.0" cy="231.0" r="7.59" fill="#ffd700"/>
<circle cx="319.0" cy="231.0" r="7.90" fill="#ffd700"/>
<circle cx="341.0" cy="231.0" r="7.13" fill="#ffd700"/>
<circle cx="451.0" cy="231.0" r="2.99" fill="#ffd700"/>
<circle cx="473.0" cy="231.0" r="10.12" fill="#ffd700"/>
<circle cx="495.0" cy="231.0" r="1.92" fill="#ffd700"/>
<circle cx="517.0" cy="231.0" r="5.42" fill="#ffd700"/>
<circle cx="539.0" cy="231.0" r="2.59" fill="#ffd700"/>
<circle cx="253.0" cy="253.0" r="3.81" fill="#ffd700"/>
<circle cx="275.0" cy="253.0" r="5.23" fill="#ffd700"/>
<circle cx="319.0" cy="253.0" r="4.52" fill="#ffd700"/>
<circle cx="341.0" cy="253.0" r="10.04" fill="#ffd700"/>
<circle cx="363.0" cy="253.0" r="1.42" fill="#ffd700"/>
<circle cx="451.0" cy="253.0" r="7.32" fill="#ffd700"/>
<circle cx="473.0" cy="253.0" r="8.66" fill="#ffd700"/>
<circle cx="517.0" cy="253.0" r="1.21" fill="#ffd700"/>
<circle cx="539.0" cy="253.0" r="7.80" fill="#ffd700"/>
<circle cx="253.0" cy="275.0" r="8.70" fill="#ffd700"/>
<circle cx="341.0" cy="275.0" r="10.08" fill="#ffd700"/>
<circle cx="363.0" cy="275.0" r="6.15" fill="#ffd700"/>
<circle cx="385.0" cy="275.0" r="2.47" fill="#ffd700"/>
<circle cx="407.0" cy="275.0" r="2.70" fill="#ffd700"/>
<circle cx="429.0" cy="275.0" r="2.95" fill="#ffd700"/>
<circle cx="451.0" cy="275.0" r="10.08" fill="#ffd700"/>
<circle cx="473.0" cy="275.0" r="5.29" fill="#ffd700"/>
<circle cx="539.0" cy="275.0" r="6.86" fill="#ffd700"/>
<circle cx="561.0" cy="275.0" r="3.16" fill="#ffd700"/>
<circle cx="231.0" cy="297.0" r="4.41" fill="#ffd700"/>
<circle cx="253.0" cy="297.0" r="8.24" fill="#ffd700"/>
<circle cx="275.0" cy="297.0" r="3.22" fill="#ffd700"/>
<circle cx="297.0" cy="297.0" r="3.22" fill="#ffd700"/>
<circle cx="319.0" cy="297.0" r="3.22" fill="#ffd700"/>
<circle cx="341.0" cy="297.0" r="8.97" fill="#ffd700"/>
<circle cx="363.0" cy="297.0" r="10.12" fill="#ffd700"/>
<circle cx="385.0" cy="297.0" r="10.12" fill="#ffd700"/>
<circle cx="407.0" cy="297.0" r="10.12" fill="#ffd700"/>
<circle cx="429.0" cy="297.0" r="10.12" fill="#ffd700"/>
<circle cx="451.0" cy="297.0" r="10.12" fill="#ffd700"/>
<circle cx="473.0" cy="297.0" r="4.89" fill="#ffd700"/>
<circle cx="495.0" cy="297.0" r="3.22" fill="#ffd700"/>
<circle cx="517.0" cy="297.0" r="3.22" fill="#ffd700"/>
<circle cx="539.0" cy="297.0" r="5.42" fill="#ffd700"/>
<circle cx="561.0" cy="297.0" r="8.43" fill="#ffd700"/>
<circle cx="231.0" cy="319.0" r="5.10" fill="#ffd700"/>
<circle cx="253.0" cy="319.0" r="6.21" fill="#ffd700"/>
<circle cx="275.0" cy="319.0" r="8.49" fill="#ffd700"/>
<circle cx="297.0" cy="319.0" r="10.12" fill="#ffd700"/>
<circle cx="319.0" cy="319.0" r="10.12" fill="#ffd700"/>
<circle cx="341.0" cy="319.0" r="10.12" fill="#ffd700"/>
<circle cx="363.0" cy="319.0" r="10.12" fill="#ffd700"/>
<circle cx="385.0" cy="319.0" r="10.12" fill="#ffd700"/>
<circle cx="407.0" cy="319.0" r="10.12" fill="#ffd700"/>
<circle cx="429.0" cy="319.0" r="10.12" fill="#ffd700"/>
<circle cx="451.0" cy="319.0" r="10.12" fill="#ffd700"/>
<circle cx="473.0" cy="319.0" r="10.12" fill="#ffd700"/>
<circle cx="495.0" cy="319.0" r="10.12" fill="#ffd700"/>
<circle cx="517.0" cy="319.0" r="9.87" fill="#ffd700"/>
<circle cx="539.0" cy="319.0" r="6.52" fill="#ffd700"/>
<circle cx="561.0" cy="319.0" r="5.98" fill="#ffd700"/>
<circle cx="583.0" cy="319.0" r="1.57" fill="#ffd700"/>
<circle cx="253.0" cy="341.0" r="2.95" fill="#ffd700"/>
<circle cx="275.0" cy="341.0" r="9.89" fill="#ffd700"/>
<circle cx="297.0" cy="341.0" r="10.12" fill="#ffd700"/>
<circle cx="319.0" cy="341.0" r="10.12" fill="#ffd700"/>
<circle cx="341.0" cy="341.0" r="10.12" fill="#ffd700"/>
<circle cx="363.0" cy="341.0" r="10.12" fill="#ffd700"/>
<circle cx="385.0" cy="341.0" r="10.12" fill="#ffd700"/>
<circle cx="407.0" cy="341.0" r="10.12" fill="#ffd700"/>
<circle cx="429.0" cy="341.0" r="10.12" fill="#ffd700"/>
<circle cx="451.0" cy="341.0" r="10.12" fill="#ffd700"/>
<circle cx="473.0" cy="341.0" r="10.12" fill="#ffd700"/>
<circle cx="495.0" cy="341.0" r="10.12" fill="#ffd700"/>
<circle cx="517.0" cy="341.0" r="10.12" fill="#ffd700"/>
<circle cx="539.0" cy="341.0" r="6.77" fill="#ffd700"/>
<circle cx="231.0" cy="363.0" r="1.25" fill="#ffd700"/>
<circle cx="253.0" cy="363.0" r="9.58" fill="#ffd700"/>
<circle cx="275.0" cy="363.0" r="10.12" fill="#ffd700"/>
<circle cx="297.0" cy="363.0" r="10.12" fill="#ffd700"/>
<circle cx="319.0" cy="363.0" r="10.12" fill="#ffd700"/>
<circle cx="341.0" cy="363.0" r="10.12" fill="#ffd700"/>
<circle cx="363.0" cy="363.0" r="10.12" fill="#ffd700"/>
<circle cx="385.0" cy="363.0" r="10.12" fill="#ffd700"/>
<circle cx="407.0" cy="363.0" r="10.12" fill="#ffd700"/>
<circle cx="429.0" cy="363.0" r="10.12" fill="#ffd700"/>
<circle cx="451.0" cy="363.0" r="10.12" fill="#ffd700"/>
<circle cx="473.0" cy="363.0" r="10.12" fill="#ffd700"/>
<circle cx="495.0" cy="363.0" r="10.12" fill="#ffd700"/>
<circle cx="517.0" cy="363.0" r="10.12" fill="#ffd700"/>
<circle cx="539.0" cy="363.0" r="10.12" fill="#ffd700"/>
<circle cx="561.0" cy="363.0" r="4.85" fill="#ffd700"/>
<circle cx="231.0" cy="385.0" r="6.59" fill="#ffd700"/>
<circle cx="253.0" cy="385.0" r="10.12" fill="#ffd700"/>
<circle cx="275.0" cy="385.0" r="10.12" fill="#ffd700"/>
<circle cx="297.0" cy="385.0" r="10.12" fill="#ffd700"/>
<circle cx="319.0" cy="385.0" r="8.80" fill="#ffd700"/>
<circle cx="341.0" cy="385.0" r="8.68" fill="#ffd700"/>
<circle cx="363.0" cy="385.0" r="10.12" fill="#ffd700"/>
<circle cx="385.0" cy="385.0" r="10.12" fill="#ffd700"/>
<circle cx="407.0" cy="385.0" r="10.12" fill="#ffd700"/>
<circle cx="429.0" cy="385.0" r="10.12" fill="#ffd700"/>
<circle cx="451.0" cy="385.0" r="9.72" fill="#ffd700"/>
<circle cx="473.0" cy="385.0" r="7.82" fill="#ffd700"/>
<circle cx="495.0" cy="385.0" r="10.06" fill="#ffd700"/>
<circle cx="517.0" cy="385.0" r="10.12" fill="#ffd700"/>
<circle cx="539.0" cy="385.0" r="10.12" fill="#ffd700"/>
<circle cx="561.0" cy="385.0" r="9.76" fill="#ffd700"/>
<circle cx="231.0" cy="407.0" r="9.95" fill="#ffd700"/>
<circle cx="253.0" cy="407.0" r="10.12" fill="#ffd700"/>
<circle cx="275.0" cy="407.0" r="10.12" fill="#ffd700"/>
<circle cx="297.0" cy="407.0" r="9.47" fill="#ffd700"/>
<circle cx="363.0" cy="407.0" r="9.16" fill="#ffd700"/>
<circle cx="385.0" cy="407.0" r="10.12" fill="#ffd700"/>
<circle cx="407.0" cy="407.0" r="10.12" fill="#ffd700"/>
<circle cx="429.0" cy="407.0" r="10.12" fill="#ffd700"/>
<circle cx="451.0" cy="407.0" r="3.49" fill="#ffd700"/>
<circle cx="495.0" cy="407.0" r="5.79" fill="#ffd700"/>
<circle cx="517.0" cy="407.0" r="10.12" fill="#ffd700"/>
<circle cx="539.0" cy="407.0" r="10.12" fill="#ffd700"/>
<circle cx="561.0" cy="407.0" r="10.12" fill="#ffd700"/>
<circle cx="583.0" cy="407.0" r="4.75" fill="#ffd700"/>
<circle cx="209.0" cy="429.0" r="3.20" fill="#ffd700"/>
<circle cx="231.0" cy="429.0" r="10.12" fill="#ffd700"/>
<circle cx="253.0" cy="429.0" r="10.12" fill="#ffd700"/>
<circle cx="275.0" cy="429.0" r="10.12" fill="#ffd700"/>
<circle cx="297.0" cy="429.0" r="9.79" fill="#ffd700"/>
<circle cx="319.0" cy="429.0" r="1.53" fill="#ffd700"/>
<circle cx="341.0" cy="429.0" r="1.28" fill="#ffd700"/>
<circle cx="363.0" cy="429.0" r="9.58" fill="#ffd700"/>
<circle cx="385.0" cy="429.0" r="10.12" fill="#ffd700"/>
<circle cx="407.0" cy="429.0" r="10.12" fill="#ffd700"/>
<circle cx="429.0" cy="429.0" r="10.12" fill="#ffd700"/>
<circle cx="451.0" cy="429.0" r="4.87" fill="#ffd700"/>
<circle cx="495.0" cy="429.0" r="6.98" fill="#ffd700"/>
<circle cx="517.0" cy="429.0" r="10.12" fill="#ffd700"/>
<circle cx="539.0" cy="429.0" r="10.12" fill="#ffd700"/>
<circle cx="561.0" cy="429.0" r="10.12" fill="#ffd700"/>
<circle cx="583.0" cy="429.0" r="7.34" fill="#ffd700"/>
<circle cx="209.0" cy="451.0" r="4.45" fill="#ffd700"/>
<circle cx="231.0" cy="451.0" r="10.12" fill="#ffd700"/>
<circle cx="253.0" cy="451.0" r="10.12" fill="#ffd700"/>
<circle cx="275.0" cy="451.0" r="10.12" fill="#ffd700"/>
<circle cx="297.0" cy="451.0" r="10.12" fill="#ffd700"/>
<circle cx="319.0" cy="451.0" r="10.04" fill="#ffd700"/>
<circle cx="341.0" cy="451.0" r="10.02" fill="#ffd700"/>
<circle cx="363.0" cy="451.0" r="10.12" fill="#ffd700"/>
<circle cx="385.0" cy="451.0" r="8.91" fill="#ffd700"/>
<circle cx="407.0" cy="451.0" r="7.59" fill="#ffd700"/>
<circle cx="429.0" cy="451.0" r="10.12" fill="#ffd700"/>
<circle cx="451.0" cy="451.0" r="10.12" fill="#ffd700"/>
<circle cx="473.0" cy="451.0" r="9.93" fill="#ffd700"/>
<circle cx="495.0" cy="451.0" r="10.12" fill="#ffd700"/>
<circle cx="517.0" cy="451.0" r="10.12" fill="#ffd700"/>
<circle cx="539.0" cy="451.0" r="10.12" fill="#ffd700"/>
<circle cx="561.0" cy="451.0" r="10.12" fill="#ffd700"/>
<circle cx="583.0" cy="451.0" r="8.59" fill="#ffd700"/>
<circle cx="209.0" cy="473.0" r="4.37" fill="#ffd700"/>
<circle cx="231.0" cy="473.0" r="10.12" fill="#ffd700"/>
<circle cx="253.0" cy="473.0" r="10.12" fill="#ffd700"/>
<circle cx="275.0" cy="473.0" r="10.12" fill="#ffd700"/>
<circle cx="297.0" cy="473.0" r="10.12" fill="#ffd700"/>
<circle cx="319.0" cy="473.0" r="10.12" fill="#ffd700"/>
<circle cx="341.0" cy="473.0" r="10.12" fill="#ffd700"/>
<circle cx="363.0" cy="473.0" r="10.12" fill="#ffd700"/>
<circle cx="385.0" cy="473.0" r="9.37" fill="#ffd700"/>
<circle cx="407.0" cy="473.0" r="6.46" fill="#ffd700"/>
<circle cx="429.0" cy="473.0" r="10.12" fill="#ffd700"/>
<circle cx="451.0" cy="473.0" r="10.12" fill="#ffd700"/>
<circle cx="473.0" cy="473.0" r="10.12" fill="#ffd700"/>
<circle cx="495.0" cy="473.0" r="10.12" fill="#ffd700"/>
<circle cx="517.0" cy="473.0" r="10.12" fill="#ffd700"/>
<circle cx="539.0" cy="473.0" r="10.12" fill="#ffd700"/>
<circle cx="561.0" cy="473.0" r="10.12" fill="#ffd700"/>
<circle cx="583.0" cy="473.0" r="8.51" fill="#ffd700"/>
<circle cx="209.0" cy="495.0" r="2.91" fill="#ffd700"/>
<circle cx="231.0" cy="495.0" r="10.12" fill="#ffd700"/>
<circle cx="253.0" cy="495.0" r="10.12" fill="#ffd700"/>
<circle cx="275.0" cy="495.0" r="10.12" fill="#ffd700"/>
<circle cx="297.0" cy="495.0" r="10.12" fill="#ffd700"/>
<circle cx="319.0" cy="495.0" r="10.12" fill="#ffd700"/>
<circle cx="341.0" cy="495.0" r="10.12" fill="#ffd700"/>
<circle cx="363.0" cy="495.0" r="10.12" fill="#ffd700"/>
<circle cx="385.0" cy="495.0" r="10.12" fill="#ffd700"/>
<circle cx="407.0" cy="495.0" r="10.12" fill="#ffd700"/>
<circle cx="429.0" cy="495.0" r="10.12" fill="#ffd700"/>
<circle cx="451.0" cy="495.0" r="10.12" fill="#ffd700"/>
<circle cx="473.0" cy="495.0" r="10.12" fill="#ffd700"/>
<circle cx="495.0" cy="495.0" r="10.12" fill="#ffd700"/>
<circle cx="517.0" cy="495.0" r="10.12" fill="#ffd700"/>
<circle cx="539.0" cy="495.0" r="10.12" fill="#ffd700"/>
<circle cx="561.0" cy="495.0" r="10.12" fill="#ffd700"/>
<circle cx="583.0" cy="495.0" r="7.05" fill="#ffd700"/>
<circle cx="231.0" cy="517.0" r="9.74" fill="#ffd700"/>
<circle cx="253.0" cy="517.0" r="10.12" fill="#ffd700"/>
<circle cx="275.0" cy="517.0" r="10.12" fill="#ffd700"/>
<circle cx="297.0" cy="517.0" r="10.12" fill="#ffd700"/>
<circle cx="319.0" cy="517.0" r="10.12" fill="#ffd700"/>
<circle cx="341.0" cy="517.0" r="10.12" fill="#ffd700"/>
<circle cx="363.0" cy="517.0" r="10.12" fill="#ffd700"/>
<circle cx="385.0" cy="517.0" r="10.12" fill="#ffd700"/>
<circle cx="407.0" cy="517.0" r="10.12" fill="#ffd700"/>
<circle cx="429.0" cy="517.0" r="10.12" fill="#ffd700"/>
<circle cx="451.0" cy="517.0" r="10.12" fill="#ffd700"/>
<circle cx="473.0" cy="517.0" r="10.12" fill="#ffd700"/>
<circle cx="495.0" cy="517.0" r="10.12" fill="#ffd700"/>
<circle cx="517.0" cy="517.0" r="10.12" fill="#ffd700"/>
<circle cx="539.0" cy="517.0" r="10.12" fill="#ffd700"/>
<circle cx="561.0" cy="517.0" r="10.12" fill="#ffd700"/>
<circle cx="583.0" cy="517.0" r="4.29" fill="#ffd700"/>
<circle cx="231.0" cy="539.0" r="5.90" fill="#ffd700"/>
<circle cx="253.0" cy="539.0" r="10.12" fill="#ffd700"/>
<circle cx="275.0" cy="539.0" r="10.12" fill="#ffd700"/>
<circle cx="297.0" cy="539.0" r="10.12" fill="#ffd700"/>
<circle cx="319.0" cy="539.0" r="10.12" fill="#ffd700"/>
<circle cx="341.0" cy="539.0" r="10.12" fill="#ffd700"/>
<circle cx="363.0" cy="539.0" r="10.12" fill="#ffd700"/>
<circle cx="385.0" cy="539.0" r="10.12" fill="#ffd700"/>
<circle cx="407.0" cy="539.0" r="10.12" fill="#ffd700"/>
<circle cx="429.0" cy="539.0" r="10.12" fill="#ffd700"/>
<circle cx="451.0" cy="539.0" r="10.12" fill="#ffd700"/>
<circle cx="473.0" cy="539.0" r="10.12" fill="#ffd700"/>
<circle cx="495.0" cy="539.0" r="10.12" fill="#ffd700"/>
<circle cx="517.0" cy="539.0" r="10.12" fill="#ffd700"/>
<circle cx="539.0" cy="539.0" r="10.12" fill="#ffd700"/>
<circle cx="561.0" cy="539.0" r="9.43" fill="#ffd700"/>
<circle cx="253.0" cy="561.0" r="9.10" fill="#ffd700"/>
<circle cx="275.0" cy="561.0" r="10.12" fill="#ffd700"/>
<circle cx="297.0" cy="561.0" r="10.12" fill="#ffd700"/>
<circle cx="319.0" cy="561.0" r="10.12" fill="#ffd700"/>
<circle cx="341.0" cy="561.0" r="10.12" fill="#ffd700"/>
<circle cx="363.0" cy="561.0" r="10.12" fill="#ffd700"/>
<circle cx="385.0" cy="561.0" r="10.12" fill="#ffd700"/>
<circle cx="407.0" cy="561.0" r="10.12" fill="#ffd700"/>
<circle cx="429.0" cy="561.0" r="10.12" fill="#ffd700"/>
<circle cx="451.0" cy="561.0" r="10.12" fill="#ffd700"/>
<circle cx="473.0" cy="561.0" r="10.12" fill="#ffd700"/>
<circle cx="495.0" cy="561.0" r="10.12" fill="#ffd700"/>
<circle cx="517.0" cy="561.0" r="10.12" fill="#ffd700"/>
<circle cx="539.0" cy="561.0" r="10.12" fill="#ffd700"/>
<circle cx="561.0" cy="561.0" r="3.89" fill="#ffd700"/>
<circle cx="253.0" cy="583.0" r="2.05" fill="#ffd700"/>
<circle cx="275.0" cy="583.0" r="9.45" fill="#ffd700"/>
<circle cx="297.0" cy="583.0" r="10.12" fill="#ffd700"/>
<circle cx="319.0" cy="583.0" r="10.12" fill="#ffd700"/>
<circle cx="341.0" cy="583.0" r="10.12" fill="#ffd700"/>
<circle cx="363.0" cy="583.0" r="10.12" fill="#ffd700"/>
<circle cx="385.0" cy="583.0" r="10.12" fill="#ffd700"/>
<circle cx="407.0" cy="583.0" r="10.12" fill="#ffd700"/>
<circle cx="429.0" cy="583.0" r="10.12" fill="#ffd700"/>
<circle cx="451.0" cy="583.0" r="10.12" fill="#ffd700"/>
<circle cx="473.0" cy="583.0" r="10.12" fill="#ffd700"/>
<circle cx="495.0" cy="583.0" r="10.12" fill="#ffd700"/>
<circle cx="517.0" cy="583.0" r="10.12" fill="#ffd700"/>
<circle cx="539.0" cy="583.0" r="5.52" fill="#ffd700"/>
<circle cx="275.0" cy="605.0" r="1.57" fill="#ffd700"/>
<circle cx="297.0" cy="605.0" r="8.07" fill="#ffd700"/>
<circle cx="319.0" cy="605.0" r="10.12" fill="#ffd700"/>
<circle cx="341.0" cy="605.0" r="10.12" fill="#ffd700"/>
<circle cx="363.0" cy="605.0" r="10.12" fill="#ffd700"/>
<circle cx="385.0" cy="605.0" r="10.12" fill="#ffd700"/>
<circle cx="407.0" cy="605.0" r="10.12" fill="#ffd700"/>
<circle cx="429.0" cy="605.0" r="10.12" fill="#ffd700"/>
<circle cx="451.0" cy="605.0" r="10.12" fill="#ffd700"/>
<circle cx="473.0" cy="605.0" r="10.12" fill="#ffd700"/>
<circle cx="495.0" cy="605.0" r="9.64" fill="#ffd700"/>
<circle cx="517.0" cy="605.0" r="4.14" fill="#ffd700"/>
<circle cx="319.0" cy="627.0" r="3.45" fill="#ffd700"/>
<circle cx="341.0" cy="627.0" r="7.26" fill="#ffd700"/>
<circle cx="363.0" cy="627.0" r="9.72" fill="#ffd700"/>
<circle cx="385.0" cy="627.0" r="10.12" fill="#ffd700"/>
<circle cx="407.0" cy="627.0" r="10.12" fill="#ffd700"/>
<circle cx="429.0" cy="627.0" r="10.08" fill="#ffd700"/>
<circle cx="451.0" cy="627.0" r="8.47" fill="#ffd700"/>
<circle cx="473.0" cy="627.0" r="5.16" fill="#ffd700"/>
<circle cx="407.0" cy="649.0" r="1.32" fill="#ffd700"/>
</svg>
